<?xml version="1.0" ?><svg fill="none" height="24" viewBox="0 0 24 24" width="24" xmlns="http://www.w3.org/2000/svg"><path clip-rule="evenodd" d="M10.4521 1.31159C11.2522 0.334228 12.7469 0.334225 13.5471 1.31159L14.5389 2.52304L16.0036 1.96981C17.1853 1.52349 18.4796 2.2708 18.6839 3.51732L18.9372 5.06239L20.4823 5.31562C21.7288 5.51992 22.4761 6.81431 22.0298 7.99598L21.4765 9.46066L22.688 10.4525C23.6653 11.2527 23.6653 12.7473 22.688 13.5475L21.4765 14.5394L22.0298 16.004C22.4761 17.1857 21.7288 18.4801 20.4823 18.6844L18.9372 18.9376L18.684 20.4827C18.4796 21.7292 17.1853 22.4765 16.0036 22.0302L14.5389 21.477L13.5471 22.6884C12.7469 23.6658 11.2522 23.6658 10.4521 22.6884L9.46022 21.477L7.99553 22.0302C6.81386 22.4765 5.51948 21.7292 5.31518 20.4827L5.06194 18.9376L3.51687 18.6844C2.27036 18.4801 1.52305 17.1857 1.96937 16.004L2.5226 14.5394L1.31115 13.5475C0.333786 12.7473 0.333782 11.2527 1.31115 10.4525L2.5226 9.46066L1.96937 7.99598C1.52304 6.81431 2.27036 5.51992 3.51688 5.31562L5.06194 5.06239L5.31518 3.51732C5.51948 2.2708 6.81387 1.52349 7.99553 1.96981L9.46022 2.52304L10.4521 1.31159ZM12.9914 3.79002L11.9996 2.57857L11.0077 3.79002C10.4639 4.45431 9.55668 4.69739 8.75353 4.39403L7.28884 3.8408L7.03561 5.38587C6.89675 6.2331 6.23266 6.89719 5.38543 7.03605L3.84036 7.28929L4.39358 8.75397C4.69694 9.55713 4.45387 10.4643 3.78957 11.0082L2.57812 12L3.78957 12.9918C4.45387 13.5357 4.69694 14.4429 4.39358 15.246L3.84036 16.7107L5.38542 16.964C6.23266 17.1028 6.89675 17.7669 7.03561 18.6141L7.28884 20.1592L8.75353 19.606C9.55668 19.3026 10.4639 19.5457 11.0077 20.21L11.9996 21.4214L12.9914 20.21C13.5353 19.5457 14.4424 19.3026 15.2456 19.606L16.7103 20.1592L16.9635 18.6141C17.1024 17.7669 17.7665 17.1028 18.6137 16.964L20.1588 16.7107L19.6055 15.246C19.3022 14.4429 19.5453 13.5357 20.2096 12.9918L21.421 12L20.2096 11.0082C19.5453 10.4643 19.3022 9.55713 19.6055 8.75397L20.1588 7.28929L18.6137 7.03605C17.7665 6.89719 17.1024 6.2331 16.9635 5.38587L16.7103 3.8408L15.2456 4.39403C14.4424 4.69739 13.5353 4.45431 12.9914 3.79002Z" fill="black" fill-rule="evenodd"/><path clip-rule="evenodd" d="M18.2062 9.20711L11.2062 16.2071C11.0187 16.3946 10.7643 16.5 10.4991 16.5C10.2339 16.5 9.97953 16.3946 9.79199 16.2071L5.79199 12.2071L7.20621 10.7929L10.4991 14.0858L16.792 7.79289L18.2062 9.20711Z" fill="black" fill-rule="evenodd"/></svg>